<mxfile host="app.diagrams.net" modified="2023-09-27T12:36:38.718Z" agent="Mozilla/5.0 (X11; Linux x86_64) AppleWebKit/537.36 (KHTML, like Gecko) Chrome/116.0.0.0 Safari/537.36" version="21.8.2" etag="ecRM5yCUjYiDw0-Du7Uj" type="github">
  <diagram name="PÃ¡gina-1" id="TCsYlYgtOmyXgTnKS2qT">
    <mxGraphModel>
      <root>
        <mxCell id="0" />
        <mxCell id="1" parent="0" />
      </root>
    </mxGraphModel>
  </diagram>
</mxfile>
